<mxfile host="app.diagrams.net" modified="2021-12-07T07:55:04.622Z" agent="5.0 (Macintosh; Intel Mac OS X 10_15_7) AppleWebKit/605.1.15 (KHTML, like Gecko) Version/14.1.2 Safari/605.1.15" etag="ZxUSX167ZR8ny48q-tQc" version="15.9.1" type="github">
  <diagram id="QehfvG2kEbQEEUwz0yZo" name="Page-1">
    <mxGraphModel dx="1698" dy="1240" grid="1" gridSize="10" guides="1" tooltips="1" connect="1" arrows="1" fold="1" page="0" pageScale="1" pageWidth="827" pageHeight="1169" math="0" shadow="0">
      <root>
        <mxCell id="0" />
        <mxCell id="1" parent="0" />
        <mxCell id="JLlFCCOCEz126PxMOQQZ-33" value="" style="rounded=1;whiteSpace=wrap;html=1;strokeColor=default;" vertex="1" parent="1">
          <mxGeometry x="640" y="235" width="290" height="525" as="geometry" />
        </mxCell>
        <mxCell id="JLlFCCOCEz126PxMOQQZ-46" style="edgeStyle=orthogonalEdgeStyle;rounded=0;orthogonalLoop=1;jettySize=auto;html=1;entryX=1;entryY=0.5;entryDx=0;entryDy=0;" edge="1" parent="1" source="JLlFCCOCEz126PxMOQQZ-32" target="JLlFCCOCEz126PxMOQQZ-34">
          <mxGeometry relative="1" as="geometry" />
        </mxCell>
        <mxCell id="JLlFCCOCEz126PxMOQQZ-47" value="Forked" style="edgeLabel;html=1;align=center;verticalAlign=middle;resizable=0;points=[];" vertex="1" connectable="0" parent="JLlFCCOCEz126PxMOQQZ-46">
          <mxGeometry x="0.3515" y="-3" relative="1" as="geometry">
            <mxPoint as="offset" />
          </mxGeometry>
        </mxCell>
        <mxCell id="JLlFCCOCEz126PxMOQQZ-48" style="edgeStyle=orthogonalEdgeStyle;rounded=0;orthogonalLoop=1;jettySize=auto;html=1;entryX=0;entryY=0.5;entryDx=0;entryDy=0;" edge="1" parent="1" source="JLlFCCOCEz126PxMOQQZ-32" target="JLlFCCOCEz126PxMOQQZ-33">
          <mxGeometry relative="1" as="geometry" />
        </mxCell>
        <mxCell id="JLlFCCOCEz126PxMOQQZ-49" value="Forked" style="edgeLabel;html=1;align=center;verticalAlign=middle;resizable=0;points=[];" vertex="1" connectable="0" parent="JLlFCCOCEz126PxMOQQZ-48">
          <mxGeometry x="0.1902" y="2" relative="1" as="geometry">
            <mxPoint as="offset" />
          </mxGeometry>
        </mxCell>
        <mxCell id="JLlFCCOCEz126PxMOQQZ-32" value="" style="rounded=1;whiteSpace=wrap;html=1;strokeColor=default;" vertex="1" parent="1">
          <mxGeometry x="270" y="-65" width="290" height="670" as="geometry" />
        </mxCell>
        <mxCell id="JLlFCCOCEz126PxMOQQZ-6" style="edgeStyle=orthogonalEdgeStyle;rounded=0;orthogonalLoop=1;jettySize=auto;html=1;entryX=0;entryY=0.5;entryDx=0;entryDy=0;" edge="1" parent="1" source="JLlFCCOCEz126PxMOQQZ-1" target="JLlFCCOCEz126PxMOQQZ-2">
          <mxGeometry relative="1" as="geometry" />
        </mxCell>
        <mxCell id="JLlFCCOCEz126PxMOQQZ-7" style="edgeStyle=orthogonalEdgeStyle;rounded=0;orthogonalLoop=1;jettySize=auto;html=1;entryX=0;entryY=0.5;entryDx=0;entryDy=0;" edge="1" parent="1" source="JLlFCCOCEz126PxMOQQZ-1" target="JLlFCCOCEz126PxMOQQZ-3">
          <mxGeometry relative="1" as="geometry" />
        </mxCell>
        <mxCell id="JLlFCCOCEz126PxMOQQZ-8" style="edgeStyle=orthogonalEdgeStyle;rounded=0;orthogonalLoop=1;jettySize=auto;html=1;exitX=0.5;exitY=1;exitDx=0;exitDy=0;entryX=0;entryY=0.5;entryDx=0;entryDy=0;" edge="1" parent="1" source="JLlFCCOCEz126PxMOQQZ-1" target="JLlFCCOCEz126PxMOQQZ-4">
          <mxGeometry relative="1" as="geometry" />
        </mxCell>
        <mxCell id="JLlFCCOCEz126PxMOQQZ-9" style="edgeStyle=orthogonalEdgeStyle;rounded=0;orthogonalLoop=1;jettySize=auto;html=1;exitX=0.5;exitY=1;exitDx=0;exitDy=0;entryX=0;entryY=0.5;entryDx=0;entryDy=0;" edge="1" parent="1" source="JLlFCCOCEz126PxMOQQZ-1" target="JLlFCCOCEz126PxMOQQZ-5">
          <mxGeometry relative="1" as="geometry" />
        </mxCell>
        <mxCell id="JLlFCCOCEz126PxMOQQZ-14" style="edgeStyle=orthogonalEdgeStyle;rounded=0;orthogonalLoop=1;jettySize=auto;html=1;exitX=0.5;exitY=1;exitDx=0;exitDy=0;entryX=0;entryY=0.5;entryDx=0;entryDy=0;dashed=1;" edge="1" parent="1" source="JLlFCCOCEz126PxMOQQZ-1" target="JLlFCCOCEz126PxMOQQZ-10">
          <mxGeometry relative="1" as="geometry" />
        </mxCell>
        <mxCell id="JLlFCCOCEz126PxMOQQZ-15" style="edgeStyle=orthogonalEdgeStyle;rounded=0;orthogonalLoop=1;jettySize=auto;html=1;exitX=0.5;exitY=1;exitDx=0;exitDy=0;entryX=0;entryY=0.5;entryDx=0;entryDy=0;dashed=1;" edge="1" parent="1" source="JLlFCCOCEz126PxMOQQZ-1" target="JLlFCCOCEz126PxMOQQZ-11">
          <mxGeometry relative="1" as="geometry" />
        </mxCell>
        <mxCell id="JLlFCCOCEz126PxMOQQZ-16" style="edgeStyle=orthogonalEdgeStyle;rounded=0;orthogonalLoop=1;jettySize=auto;html=1;exitX=0.5;exitY=1;exitDx=0;exitDy=0;entryX=0;entryY=0.5;entryDx=0;entryDy=0;dashed=1;" edge="1" parent="1" source="JLlFCCOCEz126PxMOQQZ-1" target="JLlFCCOCEz126PxMOQQZ-12">
          <mxGeometry relative="1" as="geometry" />
        </mxCell>
        <mxCell id="JLlFCCOCEz126PxMOQQZ-1" value="Upstream" style="rounded=1;whiteSpace=wrap;html=1;" vertex="1" parent="1">
          <mxGeometry x="290" y="-15" width="120" height="60" as="geometry" />
        </mxCell>
        <mxCell id="JLlFCCOCEz126PxMOQQZ-2" value="Master" style="rounded=1;whiteSpace=wrap;html=1;" vertex="1" parent="1">
          <mxGeometry x="390" y="95" width="120" height="60" as="geometry" />
        </mxCell>
        <mxCell id="JLlFCCOCEz126PxMOQQZ-3" value="Develop" style="rounded=1;whiteSpace=wrap;html=1;" vertex="1" parent="1">
          <mxGeometry x="390" y="165" width="120" height="60" as="geometry" />
        </mxCell>
        <mxCell id="JLlFCCOCEz126PxMOQQZ-4" value="Dev Integrated" style="rounded=1;whiteSpace=wrap;html=1;" vertex="1" parent="1">
          <mxGeometry x="390" y="235" width="120" height="60" as="geometry" />
        </mxCell>
        <mxCell id="JLlFCCOCEz126PxMOQQZ-5" value="CurrentRelease" style="rounded=1;whiteSpace=wrap;html=1;" vertex="1" parent="1">
          <mxGeometry x="390" y="305" width="120" height="60" as="geometry" />
        </mxCell>
        <mxCell id="JLlFCCOCEz126PxMOQQZ-10" value="Growth" style="rounded=1;whiteSpace=wrap;html=1;dashed=1;" vertex="1" parent="1">
          <mxGeometry x="390" y="375" width="120" height="60" as="geometry" />
        </mxCell>
        <mxCell id="JLlFCCOCEz126PxMOQQZ-11" value="Career" style="rounded=1;whiteSpace=wrap;html=1;dashed=1;" vertex="1" parent="1">
          <mxGeometry x="390" y="445" width="120" height="60" as="geometry" />
        </mxCell>
        <mxCell id="JLlFCCOCEz126PxMOQQZ-12" value="Live" style="rounded=1;whiteSpace=wrap;html=1;dashed=1;" vertex="1" parent="1">
          <mxGeometry x="390" y="515" width="120" height="60" as="geometry" />
        </mxCell>
        <mxCell id="JLlFCCOCEz126PxMOQQZ-17" style="edgeStyle=orthogonalEdgeStyle;rounded=0;orthogonalLoop=1;jettySize=auto;html=1;entryX=0;entryY=0.5;entryDx=0;entryDy=0;" edge="1" parent="1" source="JLlFCCOCEz126PxMOQQZ-24" target="JLlFCCOCEz126PxMOQQZ-25">
          <mxGeometry relative="1" as="geometry" />
        </mxCell>
        <mxCell id="JLlFCCOCEz126PxMOQQZ-18" style="edgeStyle=orthogonalEdgeStyle;rounded=0;orthogonalLoop=1;jettySize=auto;html=1;entryX=0;entryY=0.5;entryDx=0;entryDy=0;" edge="1" parent="1" source="JLlFCCOCEz126PxMOQQZ-24" target="JLlFCCOCEz126PxMOQQZ-26">
          <mxGeometry relative="1" as="geometry" />
        </mxCell>
        <mxCell id="JLlFCCOCEz126PxMOQQZ-19" style="edgeStyle=orthogonalEdgeStyle;rounded=0;orthogonalLoop=1;jettySize=auto;html=1;exitX=0.5;exitY=1;exitDx=0;exitDy=0;entryX=0;entryY=0.5;entryDx=0;entryDy=0;dashed=1;" edge="1" parent="1" source="JLlFCCOCEz126PxMOQQZ-24" target="JLlFCCOCEz126PxMOQQZ-27">
          <mxGeometry relative="1" as="geometry" />
        </mxCell>
        <mxCell id="JLlFCCOCEz126PxMOQQZ-20" style="edgeStyle=orthogonalEdgeStyle;rounded=0;orthogonalLoop=1;jettySize=auto;html=1;exitX=0.5;exitY=1;exitDx=0;exitDy=0;entryX=0;entryY=0.5;entryDx=0;entryDy=0;" edge="1" parent="1" source="JLlFCCOCEz126PxMOQQZ-24" target="JLlFCCOCEz126PxMOQQZ-28">
          <mxGeometry relative="1" as="geometry" />
        </mxCell>
        <mxCell id="JLlFCCOCEz126PxMOQQZ-21" style="edgeStyle=orthogonalEdgeStyle;rounded=0;orthogonalLoop=1;jettySize=auto;html=1;exitX=0.5;exitY=1;exitDx=0;exitDy=0;entryX=0;entryY=0.5;entryDx=0;entryDy=0;dashed=1;" edge="1" parent="1" source="JLlFCCOCEz126PxMOQQZ-24" target="JLlFCCOCEz126PxMOQQZ-29">
          <mxGeometry relative="1" as="geometry" />
        </mxCell>
        <mxCell id="JLlFCCOCEz126PxMOQQZ-24" value="fork/DeveloperB" style="rounded=1;whiteSpace=wrap;html=1;" vertex="1" parent="1">
          <mxGeometry x="660" y="285" width="120" height="60" as="geometry" />
        </mxCell>
        <mxCell id="JLlFCCOCEz126PxMOQQZ-25" value="Master, etc.." style="rounded=1;whiteSpace=wrap;html=1;" vertex="1" parent="1">
          <mxGeometry x="760" y="395" width="120" height="60" as="geometry" />
        </mxCell>
        <mxCell id="JLlFCCOCEz126PxMOQQZ-26" value="Feature1" style="rounded=1;whiteSpace=wrap;html=1;" vertex="1" parent="1">
          <mxGeometry x="760" y="465" width="120" height="60" as="geometry" />
        </mxCell>
        <mxCell id="JLlFCCOCEz126PxMOQQZ-27" value="Feature2" style="rounded=1;whiteSpace=wrap;html=1;dashed=1;" vertex="1" parent="1">
          <mxGeometry x="760" y="535" width="120" height="60" as="geometry" />
        </mxCell>
        <mxCell id="JLlFCCOCEz126PxMOQQZ-28" value="Bug1" style="rounded=1;whiteSpace=wrap;html=1;" vertex="1" parent="1">
          <mxGeometry x="760" y="605" width="120" height="60" as="geometry" />
        </mxCell>
        <mxCell id="JLlFCCOCEz126PxMOQQZ-29" value="Bug2" style="rounded=1;whiteSpace=wrap;html=1;dashed=1;" vertex="1" parent="1">
          <mxGeometry x="760" y="675" width="120" height="60" as="geometry" />
        </mxCell>
        <mxCell id="JLlFCCOCEz126PxMOQQZ-34" value="" style="rounded=1;whiteSpace=wrap;html=1;strokeColor=default;" vertex="1" parent="1">
          <mxGeometry x="-130" y="235" width="290" height="525" as="geometry" />
        </mxCell>
        <mxCell id="JLlFCCOCEz126PxMOQQZ-35" style="edgeStyle=orthogonalEdgeStyle;rounded=0;orthogonalLoop=1;jettySize=auto;html=1;entryX=0;entryY=0.5;entryDx=0;entryDy=0;" edge="1" parent="1" source="JLlFCCOCEz126PxMOQQZ-40" target="JLlFCCOCEz126PxMOQQZ-41">
          <mxGeometry relative="1" as="geometry" />
        </mxCell>
        <mxCell id="JLlFCCOCEz126PxMOQQZ-36" style="edgeStyle=orthogonalEdgeStyle;rounded=0;orthogonalLoop=1;jettySize=auto;html=1;entryX=0;entryY=0.5;entryDx=0;entryDy=0;" edge="1" parent="1" source="JLlFCCOCEz126PxMOQQZ-40" target="JLlFCCOCEz126PxMOQQZ-42">
          <mxGeometry relative="1" as="geometry" />
        </mxCell>
        <mxCell id="JLlFCCOCEz126PxMOQQZ-37" style="edgeStyle=orthogonalEdgeStyle;rounded=0;orthogonalLoop=1;jettySize=auto;html=1;exitX=0.5;exitY=1;exitDx=0;exitDy=0;entryX=0;entryY=0.5;entryDx=0;entryDy=0;dashed=1;" edge="1" parent="1" source="JLlFCCOCEz126PxMOQQZ-40" target="JLlFCCOCEz126PxMOQQZ-43">
          <mxGeometry relative="1" as="geometry" />
        </mxCell>
        <mxCell id="JLlFCCOCEz126PxMOQQZ-38" style="edgeStyle=orthogonalEdgeStyle;rounded=0;orthogonalLoop=1;jettySize=auto;html=1;exitX=0.5;exitY=1;exitDx=0;exitDy=0;entryX=0;entryY=0.5;entryDx=0;entryDy=0;" edge="1" parent="1" source="JLlFCCOCEz126PxMOQQZ-40" target="JLlFCCOCEz126PxMOQQZ-44">
          <mxGeometry relative="1" as="geometry" />
        </mxCell>
        <mxCell id="JLlFCCOCEz126PxMOQQZ-39" style="edgeStyle=orthogonalEdgeStyle;rounded=0;orthogonalLoop=1;jettySize=auto;html=1;exitX=0.5;exitY=1;exitDx=0;exitDy=0;entryX=0;entryY=0.5;entryDx=0;entryDy=0;dashed=1;" edge="1" parent="1" source="JLlFCCOCEz126PxMOQQZ-40" target="JLlFCCOCEz126PxMOQQZ-45">
          <mxGeometry relative="1" as="geometry" />
        </mxCell>
        <mxCell id="JLlFCCOCEz126PxMOQQZ-40" value="fork/DeveloperA" style="rounded=1;whiteSpace=wrap;html=1;" vertex="1" parent="1">
          <mxGeometry x="-110" y="285" width="120" height="60" as="geometry" />
        </mxCell>
        <mxCell id="JLlFCCOCEz126PxMOQQZ-41" value="Master, etc.." style="rounded=1;whiteSpace=wrap;html=1;" vertex="1" parent="1">
          <mxGeometry x="-10" y="395" width="120" height="60" as="geometry" />
        </mxCell>
        <mxCell id="JLlFCCOCEz126PxMOQQZ-42" value="Feature1" style="rounded=1;whiteSpace=wrap;html=1;" vertex="1" parent="1">
          <mxGeometry x="-10" y="465" width="120" height="60" as="geometry" />
        </mxCell>
        <mxCell id="JLlFCCOCEz126PxMOQQZ-43" value="Feature2" style="rounded=1;whiteSpace=wrap;html=1;dashed=1;" vertex="1" parent="1">
          <mxGeometry x="-10" y="535" width="120" height="60" as="geometry" />
        </mxCell>
        <mxCell id="JLlFCCOCEz126PxMOQQZ-44" value="Bug1" style="rounded=1;whiteSpace=wrap;html=1;" vertex="1" parent="1">
          <mxGeometry x="-10" y="605" width="120" height="60" as="geometry" />
        </mxCell>
        <mxCell id="JLlFCCOCEz126PxMOQQZ-45" value="Bug2" style="rounded=1;whiteSpace=wrap;html=1;dashed=1;" vertex="1" parent="1">
          <mxGeometry x="-10" y="675" width="120" height="60" as="geometry" />
        </mxCell>
      </root>
    </mxGraphModel>
  </diagram>
</mxfile>
